<svg width="196" height="34" viewBox="0 0 196 34" fill="none" xmlns="http://www.w3.org/2000/svg">
<path d="M34.2936 0.00371742L22.161 30.6325L10.1142 0.00371742H0L13.9756 34.0037H30.4322L44.4078 0.00371742H34.2936Z" fill="#E8E8E8"/>
<path d="M46.9933 0.00371742V34.0037H56.186V0.00371742H46.9933Z" fill="#E8E8E8"/>
<path d="M74.3065 25.9324L98.9821 8.11144L98.9485 0.00371742H58.7565V8.07503H84.6894L58.7565 25.9324V34.0037H98.9821L98.9485 25.9324H74.3103H74.3065Z" fill="#E8E8E8"/>
<path d="M110.764 6.76076V0.00371742H101.571V34.0037H110.764V27.2103C110.57 26.97 110.376 26.7261 110.197 26.4676C108.089 23.5623 107.026 20.3841 107.026 16.9764C107.026 13.5688 108.089 10.3905 110.197 7.50345C110.372 7.24496 110.57 7.00104 110.764 6.76076Z" fill="#E8E8E8"/>
<path d="M186.488 0.00371742V31.0839L173.151 0.00371742H156.146V6.22558C156.5 6.64062 156.817 7.05565 157.138 7.50345C159.194 10.3905 160.22 13.587 160.22 16.9764C160.22 20.3659 159.194 23.5623 157.138 26.4494C156.821 26.8972 156.5 27.3122 156.146 27.7272V34.0001H165.338V3.35675L178.657 34.0037H195.681V0.00371742H186.488Z" fill="#E8E8E8"/>
<path d="M156.146 9.18179C156.004 8.95607 155.843 8.71579 155.687 8.49006C153.844 5.87972 151.348 3.80455 148.21 2.28276C145.076 0.760972 141.64 7.62939e-05 137.917 7.62939e-05H129.381C125.803 7.62939e-05 122.419 0.760972 119.248 2.29732C116.058 3.83732 113.525 5.90885 111.63 8.50463C111.312 8.93786 111.029 9.38566 110.76 9.8371C109.451 12.0506 108.794 14.4534 108.794 16.9764C108.794 19.4994 109.451 21.9022 110.76 24.1339C111.025 24.5817 111.309 25.0332 111.63 25.4664C113.525 28.0767 116.058 30.1519 119.211 31.6883C122.363 33.2283 125.766 34.0037 129.377 34.0037H137.913C141.633 34.0037 145.069 33.2246 148.206 31.6883C151.34 30.1483 153.84 28.0767 155.683 25.4664C155.843 25.2407 156 25.0004 156.142 24.7747C157.683 22.3536 158.444 19.7615 158.444 16.9801C158.444 14.1986 157.683 11.6028 156.142 9.18543L156.146 9.18179ZM141.301 22.6631C140.502 24.5817 139.405 26.1545 138.006 27.4178C136.607 28.6629 135.067 29.2854 133.384 29.2854C131.701 29.2854 130.194 28.6447 128.814 27.385C127.433 26.1217 126.351 24.5344 125.553 22.6158C124.755 20.7154 124.348 18.8295 124.348 16.9801C124.348 15.1306 124.755 13.2812 125.553 11.4499C126.351 9.61867 127.43 8.11508 128.814 6.93915C130.194 5.74502 131.72 5.15887 133.384 5.15887C135.048 5.15887 136.607 5.74502 138.006 6.93915C139.405 8.11508 140.502 9.63687 141.301 11.4863C142.099 13.3358 142.506 15.1852 142.506 17.0347C142.506 18.8841 142.099 20.77 141.301 22.6704V22.6631Z" fill="#E8E8E8"/>
</svg>
