<svg width="128" height="128" viewBox="0 0 128 128" fill="none" xmlns="http://www.w3.org/2000/svg">
<rect width="128" height="128" rx="12" fill="black"/>
<path d="M101.196 50.658C100.961 50.2746 100.699 49.8619 100.435 49.4785C97.3925 45.0266 93.2685 41.4881 88.0908 38.8925C82.913 36.2988 77.2384 35 71.0942 35H56.9931C51.0837 35 45.4965 36.2968 40.2605 38.9218C34.9954 41.5468 30.8113 45.0833 27.6809 49.5078C27.155 50.2452 26.6854 51.012 26.2468 51.7788C24.0829 55.5519 23 59.6518 23 63.955C23 68.2583 24.0829 72.3581 26.2468 76.1626C26.6854 76.9293 27.1531 77.6961 27.6809 78.4335C30.8113 82.8854 34.9935 86.4239 40.2023 89.0488C45.4092 91.6738 51.0255 93 56.9931 93H71.0942C77.2365 93 82.913 91.6738 88.0908 89.0488C93.2685 86.4239 97.3925 82.8874 100.435 78.4335C100.699 78.0501 100.961 77.6374 101.196 77.254C103.74 73.1268 105 68.7042 105 63.957C105 59.2097 103.742 54.7871 101.196 50.6599V50.658ZM76.6814 73.6569C75.3656 76.9293 73.5511 79.613 71.2397 81.7646C68.9284 83.8869 66.3841 84.949 63.6051 84.949C60.826 84.949 58.34 83.8576 56.0577 81.7059C53.7755 79.5543 51.992 76.8413 50.6742 73.5689C49.3585 70.3258 48.685 67.112 48.685 63.957C48.685 60.8019 49.3585 57.6468 50.6742 54.5211C51.99 51.3954 53.7755 48.831 56.0577 46.8261C58.34 44.7919 60.8551 43.7884 63.6051 43.7884C66.355 43.7884 68.9284 44.7899 71.2397 46.8261C73.5511 48.831 75.3637 51.4267 76.6814 54.5798C77.9972 57.7349 78.6706 60.8899 78.6706 64.045C78.6706 67.2001 77.9972 70.4138 76.6814 73.6569Z" fill="white"/>
</svg>
